<?xml version="1.0" encoding="UTF-8"?>
<svg id="Layer_1" xmlns="http://www.w3.org/2000/svg" version="1.1" viewBox="0 0 105.42 27.4">
  <!-- Generator: Adobe Illustrator 30.1.0, SVG Export Plug-In . SVG Version: 2.1.1 Build 136)  -->
  <defs>
    <style>
      .st0 {
        fill: #fff;
      }
    </style>
  </defs>
  <path class="st0" d="M105.42,6.2l-.4-.23-4.7,1.37c-1.24-1.02-3.14-1.65-4.72-1.56-1.92.05-3.79.78-5.01,2.3-.79.99-1.29,2.16-1.51,3.42-.2,1.1-.25,2.2-.18,3.32.08,1.29.44,2.65,1.27,3.66.69.84,1.62,1.39,2.68,1.65,1.27.32,2.87.35,4.12-.11.93-.34,1.74-.83,2.51-1.46.05,1.04-.06,2.1-.88,2.76-1.28,1.03-3.82.69-5.4.55l-3.07-.54v5.45c1.68.39,3.34.58,5.04.62,1.04.02,2.03-.01,3.06-.15,2.96-.41,5.54-1.8,6.55-4.75.34-1,.5-2.02.49-3.09l-.11-7.49.25-5.72ZM99.49,15.27c-.42.23-.86.38-1.32.49-.75.13-1.48.14-2.25.03-.93-.17-1.66-.65-1.79-1.62-.13-.99.13-2.03,1.06-2.53,1.13-.61,3.08-.55,4.3-.32v3.95Z"/>
  <path class="st0" d="M52.42,13.92l5.39-7.59v-.17s-7.15,0-7.15,0l-3.79,7.35-.08-2.62V.62s-5.96,0-5.96,0l.28,9.48-.03,12.12h6.04s-.22-7.86-.22-7.86l4.1,7.86h7.27c.02-.1,0-.17-.06-.25l-5.78-8.07Z"/>
  <path class="st0" d="M87.99,10.96c-.45-1.89-1.7-3.44-3.45-4.28-1.66-.79-3.46-.99-5.3-.9-.64.03-1.24.13-1.85.28-1.22.31-2.31.89-3.27,1.69-1.63,1.36-2.5,3.34-2.75,5.42-.11.92-.13,1.83-.06,2.76.28,3.78,2.8,6.07,6.47,6.56,2.78.37,5.52-.06,7.69-1.93,1.55-1.33,2.44-3.33,2.69-5.34.18-1.45.18-2.85-.15-4.27ZM82.97,14.54l-4.51,2.4c-.38.21-.91-.02-.91-.39v-4.79c0-.37.52-.6.91-.39l4.51,2.4c.34.18.34.6,0,.77Z"/>
  <polygon class="st0" points=".17 12.74 0 22.23 5.48 22.23 5.4 16.41 12.01 16.44 11.98 11.75 5.33 11.75 5.31 8.47 12.4 8.45 12.43 3 0 3 .17 12.74"/>
  <polygon class="st0" points="64.31 16.76 64.24 12.66 64.47 2.99 58.59 3 58.76 12.78 58.62 22.23 70.77 22.23 70.76 16.78 64.31 16.76"/>
  <path class="st0" d="M35.66,17.01c-1.06-.15-2-.76-2.28-1.84-.36-1.44.02-3.2,1.61-3.67,1.26-.37,3.26-.18,4.45.29l.39.15v-5.81c-2.22-.52-4.25-.59-6.41.18-1.54.54-3,1.64-3.89,3.01-.52.79-.9,1.63-1.13,2.56-.33,1.32-.41,2.67-.3,4.03.19,2.28,1.15,4.25,3.12,5.47.58.36,1.19.61,1.85.81.92.29,1.85.39,2.82.43,1.34.06,2.87-.11,4.11-.69v-5.59c-1.29.68-2.97.88-4.35.68Z"/>
  <polygon class="st0" points="19.66 .62 13.7 .62 13.98 10.14 13.96 22.23 20 22.23 19.66 10.93 19.66 .62"/>
  <polygon class="st0" points="26.92 6.16 20.99 6.16 21.24 10.15 21.24 22.23 27.29 22.23 26.92 10.9 26.92 6.16"/>
  <path class="st0" d="M25.26.1c-1.16-.21-2.74-.15-3.71.63-.8.64-.99,1.89-.85,2.84.16,1.11,1.09,1.72,2.12,1.91,1.4.25,3.38.16,4.21-1.19.34-.55.43-1.19.43-1.83,0-1.37-.95-2.13-2.2-2.36Z"/>
</svg>